<?xml version="1.0" standalone="no"?>
<!DOCTYPE svg PUBLIC "-//W3C//DTD SVG 20010904//EN"
 "http://www.w3.org/TR/2001/REC-SVG-20010904/DTD/svg10.dtd">
<svg version="1.0" xmlns="http://www.w3.org/2000/svg"
 width="1280.000000pt" height="1280.000000pt" viewBox="0 0 1280.000000 1280.000000"
 preserveAspectRatio="xMidYMid meet">
<metadata>
Created by potrace 1.15, written by Peter Selinger 2001-2017
</metadata>
<g transform="translate(0.000000,1280.000000) scale(0.100000,-0.100000)"
fill="#000000" stroke="none">
<path d="M6084 12064 c-170 -328 -308 -598 -308 -601 5 -17 620 -1263 624
-1263 10 0 615 1244 615 1265 0 23 -603 1195 -615 1195 -4 0 -146 -268 -316
-596z"/>
<path d="M5747 10483 c337 -1854 503 -2776 503 -2789 0 -9 -121 141 -270 331
-148 191 -270 351 -270 356 0 5 38 268 85 586 47 318 84 583 83 590 -2 6 -84
-200 -183 -458 -98 -258 -182 -469 -185 -468 -3 0 -354 448 -779 995 -669 858
-804 1030 -777 986 12 -19 946 -2335 943 -2338 -2 -2 -228 32 -503 75 -274 44
-500 78 -501 77 -2 -1 252 -103 564 -227 l567 -224 163 -404 c90 -222 162
-405 160 -407 -1 -2 -1132 954 -2537 2145 -67 58 -117 94 -110 81 7 -13 182
-313 390 -667 208 -353 375 -644 372 -644 -22 -5 -1473 3 -1502 8 -23 3 -31 2
-25 -4 6 -6 366 -137 800 -293 435 -155 1110 -397 1500 -537 391 -140 768
-275 838 -300 70 -25 126 -47 124 -49 -2 -2 -198 -31 -435 -65 l-432 -60 -432
342 c-238 188 -455 361 -482 383 -28 23 -46 34 -40 25 5 -8 149 -187 319 -397
171 -211 311 -386 313 -390 1 -4 -298 -49 -665 -101 -368 -51 -870 -121 -1118
-156 -247 -35 -507 -71 -578 -81 -70 -9 -126 -19 -123 -21 3 -3 1856 -264
2334 -329 72 -10 137 -21 143 -25 7 -4 -114 -161 -305 -397 -174 -215 -316
-393 -316 -396 0 -3 78 57 173 132 489 390 780 617 791 616 74 -5 854 -120
848 -125 -4 -3 -27 -13 -52 -22 -25 -8 -340 -121 -700 -250 -360 -129 -1071
-384 -1580 -567 -508 -182 -927 -333 -929 -336 -2 -2 344 -1 770 3 l773 6 -15
-24 c-9 -13 -177 -298 -373 -634 -197 -335 -367 -626 -379 -645 -19 -33 -19
-34 -1 -19 33 27 1901 1608 2282 1931 199 169 362 305 362 302 0 -10 -312
-779 -325 -799 -9 -15 -180 -87 -568 -240 -306 -121 -552 -221 -548 -223 5 -1
225 31 490 73 265 42 486 75 491 73 5 -2 -202 -525 -460 -1162 -258 -638 -468
-1161 -466 -1163 1 -2 350 443 775 988 425 544 775 989 776 987 2 -2 83 -210
180 -463 172 -447 201 -519 190 -465 -3 14 -43 285 -90 603 -70 475 -83 582
-72 596 58 84 523 669 525 663 2 -8 -178 -1009 -537 -2985 -43 -235 -74 -424
-70 -420 4 4 175 304 380 666 205 361 376 657 379 657 3 0 174 -296 379 -657
344 -607 401 -705 387 -663 -3 8 -42 218 -86 465 -45 248 -182 1008 -306 1689
-124 681 -223 1243 -222 1248 3 8 496 -617 527 -667 10 -16 -3 -127 -74 -604
-47 -321 -84 -588 -83 -592 2 -5 68 161 148 368 79 208 161 420 181 472 l36
94 773 -992 c425 -545 775 -990 777 -988 1 2 -209 527 -468 1166 -259 640
-469 1164 -467 1165 2 1 224 -33 493 -75 270 -43 494 -77 499 -76 4 2 -52 26
-125 55 -760 300 -976 387 -986 396 -10 9 -333 795 -333 810 0 3 163 -133 363
-302 380 -323 2248 -1904 2281 -1931 18 -15 18 -14 -1 19 -12 19 -182 310
-379 645 -196 336 -364 621 -373 634 l-15 24 773 -6 c426 -4 772 -5 770 -3 -2
3 -421 154 -929 336 -509 183 -1220 438 -1580 567 -360 129 -675 242 -700 250
-25 9 -48 19 -52 22 -7 6 783 121 847 124 12 1 203 -144 485 -367 256 -203
472 -374 480 -380 17 -13 28 -26 -344 434 -238 294 -284 356 -269 362 10 4
558 82 1218 173 1193 166 1258 175 1253 180 -2 2 -562 81 -1245 176 -684 95
-1243 176 -1243 179 0 3 51 68 113 145 62 77 207 257 322 400 154 190 198 251
165 225 -25 -19 -238 -188 -475 -376 -236 -187 -435 -343 -442 -347 -12 -7
-860 107 -870 117 -2 2 54 24 124 49 70 25 448 160 838 300 391 140 1066 382
1500 537 435 156 795 287 800 293 6 6 -2 7 -25 4 -29 -5 -1480 -13 -1502 -8
-3 0 164 291 372 644 208 354 383 655 390 668 l13 24 -29 -26 c-16 -14 -488
-415 -1049 -890 -561 -475 -1146 -970 -1300 -1100 -154 -131 -281 -236 -282
-235 -2 2 70 185 160 407 l163 404 240 96 c131 53 388 155 569 227 182 73 326
132 320 132 -5 0 -233 -36 -505 -79 -272 -43 -496 -78 -498 -76 -2 2 932 2315
945 2340 19 33 -97 -113 -787 -1000 -420 -539 -765 -982 -767 -985 -7 -8 -17
15 -197 484 -99 256 -180 465 -181 464 -2 -2 37 -271 86 -598 49 -327 88 -598
89 -601 0 -4 -121 -163 -270 -354 -148 -191 -270 -340 -270 -332 0 8 40 237
90 508 49 272 186 1029 305 1682 118 653 215 1195 215 1204 0 14 -500 -857
-704 -1224 -28 -51 -53 -93 -56 -92 -5 0 -712 1242 -739 1299 -8 17 -17 30
-21 30 -3 0 45 -278 107 -617z m217 -2714 c165 -122 305 -225 309 -229 8 -7
119 -599 114 -613 -1 -4 -50 76 -110 179 -100 174 -107 189 -108 242 -1 32 -4
81 -7 111 l-7 54 -42 -79 c-67 -127 -51 -119 -176 -83 -60 17 -111 29 -113 26
-3 -2 -16 -47 -30 -98 -13 -52 -27 -101 -30 -110 -4 -14 -19 -16 -117 -12
l-112 4 97 -63 c54 -35 98 -68 98 -75 0 -6 38 -77 84 -157 47 -80 90 -156 97
-168 12 -22 11 -22 -7 -8 -35 28 -409 343 -426 359 -13 13 -25 95 -58 394 -24
207 -41 380 -38 383 3 3 56 -15 117 -40 76 -30 113 -41 116 -33 4 10 35 220
35 232 0 12 31 -9 314 -216z m1202 98 l19 -124 113 45 c62 24 116 41 119 38 8
-7 -77 -759 -86 -769 -22 -23 -466 -395 -469 -392 -2 2 45 86 104 187 l107
185 96 62 96 62 -114 -3 -115 -3 -27 108 c-15 60 -29 111 -32 113 -3 3 -55 -8
-117 -24 l-111 -29 -23 41 c-13 23 -37 65 -53 94 l-30 54 -6 -69 c-4 -37 -7
-87 -7 -110 0 -23 -4 -43 -8 -45 -4 -1 -53 -80 -107 -175 -55 -95 -100 -171
-101 -170 -4 3 104 589 110 594 12 13 612 452 617 453 3 0 14 -56 25 -123z
m-1213 -591 c31 -9 57 -20 57 -25 0 -5 -12 -29 -26 -55 l-26 -46 -65 0 c-57 0
-64 2 -59 18 3 9 12 43 21 75 10 35 21 57 28 54 7 -2 38 -12 70 -21z m987 -13
c5 -21 13 -55 16 -75 l7 -38 -61 0 -60 0 -30 53 c-16 28 -28 54 -26 56 3 4
122 39 136 40 4 1 12 -16 18 -36z m-327 -366 c-5 -86 -7 -157 -6 -157 2 0 76
47 165 104 90 58 164 103 165 102 2 -2 -40 -77 -92 -167 -84 -145 -132 -209
-158 -209 -5 0 -29 17 -55 39 -59 48 -97 68 -162 82 l-50 11 0 55 c0 52 6 66
98 224 l97 168 3 -47 c1 -26 -1 -118 -5 -205z m-329 61 c82 -143 96 -174 96
-212 l0 -44 -50 -11 c-65 -14 -103 -34 -163 -84 l-49 -40 -36 21 c-30 17 -57
54 -138 194 -56 95 -101 174 -99 176 1 1 79 -47 174 -108 163 -105 188 -119
178 -102 -6 10 -20 388 -14 382 3 -3 48 -80 101 -172z m-652 -205 c150 -53
277 -100 282 -105 6 -4 -85 -8 -202 -8 l-212 0 -101 51 c-56 27 -99 46 -96 42
2 -4 28 -48 57 -96 l54 -88 -87 -87 -87 -88 86 -80 87 -79 -56 -90 c-30 -50
-54 -92 -52 -93 2 -2 43 17 92 42 l89 46 220 0 219 -1 -291 -104 -291 -105
-344 151 c-189 83 -348 154 -353 159 -4 4 36 43 89 85 53 43 93 80 88 84 -4 4
-50 41 -102 81 -52 41 -90 75 -85 77 5 2 162 70 349 153 187 82 348 149 357
149 10 1 140 -43 290 -96z m2155 -42 c383 -167 373 -163 373 -170 0 -4 -43
-40 -95 -80 -52 -40 -95 -74 -95 -76 0 -2 152 -124 188 -151 11 -8 -68 -46
-344 -167 l-359 -157 -290 105 -290 104 215 3 215 3 90 -47 c50 -26 93 -48 97
-48 4 0 -17 41 -47 90 -30 50 -55 93 -55 97 0 3 37 40 81 82 l82 76 -82 79
c-44 44 -81 85 -81 91 0 6 21 44 46 85 25 41 50 83 56 93 6 12 -20 3 -91 -33
l-101 -50 -211 0 c-117 0 -209 3 -206 7 11 10 549 202 569 203 10 0 161 -63
335 -139z m-1727 -151 c22 -11 40 -22 40 -24 0 -2 -10 -25 -22 -52 -17 -38
-22 -68 -22 -134 0 -49 5 -94 12 -107 11 -20 9 -24 -11 -38 -20 -13 -57 -15
-226 -13 l-202 3 181 94 182 93 -174 90 c-95 50 -177 94 -182 99 -6 5 73 9
187 9 179 0 202 -2 237 -20z m1106 13 c-4 -4 -86 -49 -183 -99 l-175 -91 182
-94 181 -94 -202 -3 c-169 -2 -206 0 -226 13 -20 14 -22 18 -11 38 7 13 12 58
12 107 0 66 -5 96 -22 134 -12 27 -22 50 -22 52 0 2 17 12 38 23 33 18 57 20
236 21 110 0 196 -3 192 -7z m-1679 -141 l30 -49 -31 -51 c-17 -28 -36 -52
-41 -52 -6 0 -33 23 -60 50 l-49 50 54 55 c29 30 56 52 60 50 3 -2 20 -26 37
-53z m1918 -2 l50 -50 -54 -53 c-29 -28 -55 -47 -57 -42 -2 6 -17 30 -33 54
l-29 43 31 49 c16 27 33 49 36 49 4 0 29 -23 56 -50z m-1286 -285 c45 -66 124
-117 211 -136 27 -6 50 -16 50 -22 0 -6 -44 -88 -97 -182 l-98 -170 -3 45 c-1
25 1 111 5 193 5 81 5 147 0 147 -4 0 -78 -46 -164 -101 -87 -56 -163 -104
-170 -106 -17 -7 180 335 204 352 27 21 36 18 62 -20z m625 13 c33 -50 194
-333 191 -336 -1 -2 -73 42 -159 98 -141 90 -186 114 -173 93 8 -13 19 -398
12 -391 -23 22 -195 335 -195 354 0 19 8 24 50 33 87 19 166 70 211 136 28 41
43 44 63 13z m353 -250 c131 -110 239 -204 240 -207 3 -9 83 -731 83 -751 0
-16 -14 -13 -110 26 -60 24 -114 44 -118 44 -5 0 -14 -43 -21 -95 -8 -52 -16
-108 -20 -124 l-6 -30 -303 223 c-167 123 -308 228 -314 234 -9 9 -119 583
-113 590 1 2 42 -66 91 -150 48 -84 96 -165 106 -180 11 -16 18 -45 19 -80 0
-29 4 -75 7 -103 l7 -50 50 93 c27 50 54 92 60 92 5 0 58 -13 117 -29 l106
-29 28 114 28 113 110 3 110 3 -91 58 -91 57 -110 190 c-61 105 -109 190 -106
190 2 0 111 -91 241 -202z m-1272 10 c-52 -91 -95 -170 -95 -176 0 -6 -41 -37
-92 -69 l-92 -58 107 -3 107 -3 16 -57 c9 -31 23 -82 32 -113 l17 -56 113 32
113 33 52 -97 52 -96 7 50 c3 28 7 77 7 109 1 56 6 68 109 247 59 103 108 184
110 180 2 -6 -89 -526 -103 -588 -3 -14 -108 -97 -305 -243 -165 -121 -306
-223 -314 -226 -10 -4 -16 15 -25 78 -21 146 -23 158 -30 158 -4 0 -56 -20
-116 -44 -61 -24 -112 -40 -113 -35 -2 5 15 179 38 387 l42 377 32 26 c17 15
119 101 226 192 107 91 196 164 198 162 1 -1 -40 -76 -93 -167z m161 -349 c14
-28 22 -55 17 -59 -15 -14 -126 -42 -133 -33 -4 4 -13 31 -19 58 -7 28 -14 58
-17 68 -5 15 2 17 60 17 l66 0 26 -51z m974 34 c0 -22 -27 -123 -34 -130 -3
-3 -37 2 -75 12 l-70 18 30 59 29 58 60 0 c51 0 60 -3 60 -17z"/>
<path d="M960 9524 c0 -4 163 -262 362 -574 l362 -567 246 -17 c704 -48 1127
-76 1148 -76 20 0 -31 81 -364 578 -213 317 -392 582 -398 588 -7 8 -105 16
-276 23 -146 7 -413 18 -595 26 -181 8 -365 17 -407 20 -43 4 -78 3 -78 -1z"/>
<path d="M11630 9515 c-96 -7 -213 -16 -260 -19 -47 -4 -254 -17 -460 -31
-206 -14 -400 -27 -430 -31 l-55 -6 -361 -566 c-199 -312 -358 -568 -353 -570
5 -2 174 4 376 13 203 9 502 22 666 29 164 8 302 17 306 22 14 15 773 1148
778 1162 3 7 -2 11 -13 11 -11 -1 -98 -8 -194 -14z"/>
<path d="M2865 4464 c-99 -7 -353 -24 -565 -39 -603 -41 -610 -41 -619 -51
-14 -15 -721 -1124 -721 -1131 0 -3 53 -3 118 1 64 3 272 13 462 21 700 31
764 35 777 48 9 10 750 1111 777 1155 8 14 20 14 -229 -4z"/>
<path d="M9706 4468 c4 -7 169 -266 367 -575 l359 -563 36 0 c21 0 98 -4 172
-10 74 -5 306 -21 515 -34 209 -14 409 -28 445 -31 224 -16 242 -17 239 -8 -2
6 -179 271 -393 590 l-390 580 -130 7 c-72 3 -331 15 -576 26 -245 10 -492 22
-549 25 -84 5 -102 4 -95 -7z"/>
<path d="M6088 1975 c-170 -326 -308 -599 -308 -607 0 -7 126 -269 281 -583
154 -314 292 -596 306 -628 14 -31 29 -57 33 -57 4 0 23 35 43 77 19 43 157
326 306 629 149 304 271 557 271 564 0 14 -613 1199 -620 1199 -3 0 -143 -267
-312 -594z"/>
</g>
</svg>
